<?xml version="1.0" encoding="UTF-8" standalone="no" ?>
<!DOCTYPE svg PUBLIC "-//W3C//DTD SVG 1.1//EN" "http://www.w3.org/Graphics/SVG/1.1/DTD/svg11.dtd">
<svg xmlns="http://www.w3.org/2000/svg" xmlns:xlink="http://www.w3.org/1999/xlink" version="1.1" width="1080" height="1080" viewBox="0 0 1080 1080" xml:space="preserve">
<desc>Created with Fabric.js 5.2.4</desc>
<defs>
</defs>
<g transform="matrix(1 0 0 1 540 540)" id="b3bd9abd-3534-4946-8f52-31fe36584fe3"  >
<rect style="stroke: none; stroke-width: 1; stroke-dasharray: none; stroke-linecap: butt; stroke-dashoffset: 0; stroke-linejoin: miter; stroke-miterlimit: 4; fill: rgb(255,255,255); fill-rule: nonzero; opacity: 1; visibility: hidden;" vector-effect="non-scaling-stroke"  x="-540" y="-540" rx="0" ry="0" width="1080" height="1080" />
</g>
<g transform="matrix(1 0 0 1 540 540)" id="22fca261-30f7-4d9c-bd6c-f21f04a14b7f"  >
</g>
<g transform="matrix(2.17 0 0 2.05 540 540)"  >
<g style="" vector-effect="non-scaling-stroke"   >
		<g transform="matrix(0.48 0 0 0.48 0 0)"  >
<rect style="stroke: none; stroke-width: 1; stroke-dasharray: none; stroke-linecap: butt; stroke-dashoffset: 0; stroke-linejoin: miter; stroke-miterlimit: 4; fill: rgb(251,49,153); fill-rule: nonzero; opacity: 1;" vector-effect="non-scaling-stroke"  x="-490.497" y="-490.497" rx="61.902" ry="61.902" width="980.994" height="980.994" />
</g>
		<g transform="matrix(0.13 0 0 0.13 4.23 5.9)"  >
<path style="stroke: none; stroke-width: 1; stroke-dasharray: none; stroke-linecap: butt; stroke-dashoffset: 0; stroke-linejoin: miter; stroke-miterlimit: 4; fill: rgb(255,235,61); fill-rule: nonzero; opacity: 1;" vector-effect="non-scaling-stroke"  transform=" translate(-1634.54, -1633.5)" d="M 1480 3056 C 912 2831 915 2833 858 2788 C 773 2721 773 2722 375 1527 L 1 405 L 30 375 L 60 345 L 640 925 C 1171 1456 1219 1506 1212 1530 C 1208 1544 1205 1587 1206 1626 C 1207 1764 1292 1890 1428 1958 C 1500 1993 1509 1995 1600 1995 C 1691 1995 1700 1993 1772 1958 C 1863 1913 1919 1855 1963 1762 C 1992 1701 1995 1686 1995 1600 C 1995 1514 1992 1499 1963 1438 C 1946 1401 1913 1351 1889 1326 C 1807 1236 1645 1181 1545 1209 L 1505 1220 L 928 642 C 610 325 350 63 350 60 C 350 57 362 42 376 27 L 400 -2 L 1514 370 C 2126 574 2644 750 2666 762 C 2730 796 2776 837 2812 893 C 2839 934 3247 1947 3268 2024 C 3272 2038 3125 2190 2659 2656 C 2321 2994 2038 3270 2030 3269 C 2022 3269 1774 3173 1480 3056 z" stroke-linecap="round" />
</g>
</g>
</g>
</svg>